<svg width="24" height="24" viewBox="0 0 24 24" fill="none" xmlns="http://www.w3.org/2000/svg">
<g clip-path="url(#clip0_2534_4057)">
<path d="M22 4.75H2V4.25H22V4.75Z" stroke="#C4C4C4"/>
<path d="M15.4571 2.5L15.7894 2.16771C15.8466 2.27345 15.8927 2.38481 15.927 2.5H15.4571ZM15.5 3.5H16V4H15.5V3.5ZM15.0823 1.4606L14.75 1.79288V1.32295C14.8652 1.3573 14.9765 1.40343 15.0823 1.4606ZM13.75 1.25V1.75H10.25V1.25H13.75ZM8.07294 2.5C8.10729 2.38481 8.15342 2.27344 8.21059 2.1677L8.54289 2.5H8.07294ZM8 4V3.5H8.5V4H8ZM9.25 1.79289L8.9177 1.46059C9.02344 1.40342 9.13481 1.35729 9.25 1.32295V1.79289Z" stroke="#C4C4C4"/>
<path d="M10 10.25V16.75H9.5V10.25H10Z" stroke="#C4C4C4"/>
<path d="M14.5 10.25V16.75H14V10.25H14.5Z" fill="#C4C4C4" stroke="#C4C4C4"/>
<path d="M5.39515 21.6043L5.12722 21.8954C5.07809 21.8129 5.03583 21.7264 5.00087 21.637L5.39515 21.6043ZM5.86299 22.5726L6.13098 22.2814V22.6771C6.03893 22.6497 5.94929 22.6147 5.86299 22.5726ZM16.8699 22.75H7.13098V22.25H16.87L16.8699 22.75ZM17.87 22.6771L17.87 22.2815L18.138 22.5726C18.0517 22.6147 17.962 22.6497 17.87 22.6771ZM18.6056 21.6041L19.0002 21.6369C18.9652 21.7264 18.9229 21.8128 18.8738 21.8954L18.6056 21.6041ZM19.1556 20.6463L18.6574 20.6049L19.9593 4.97756L20.4576 5.01907L19.1556 20.6463ZM5.34358 20.6051L4.8453 20.6464L3.54239 5.01909L4.04066 4.97755L5.34358 20.6051ZM3.68767 3.75263L3.70844 4.00177L3.68767 3.75263Z" stroke="#C4C4C4"/>
</g>
<defs>
<clipPath id="clip0_2534_4057">
<rect width="24" height="24" fill="white"/>
</clipPath>
</defs>
</svg>
