<svg width="13" height="13" viewBox="0 0 13 13" fill="none" xmlns="http://www.w3.org/2000/svg">
<path d="M10.2194 1.36397L6.68383 4.89951L3.14829 1.36397C2.43327 0.648857 1.74274 -0.0589047 1.02695 0.656889C0.311154 1.37268 1.01901 2.06312 1.73408 2.77819L5.26961 6.31372L1.73408 9.84925C1.01856 10.5648 0.311946 11.2555 1.02697 11.9706C1.74177 12.6854 2.43254 11.9792 3.14829 11.2635L6.68382 7.72793L10.2194 11.2635C10.9347 11.9788 11.6246 12.6866 12.3407 11.9706C13.0565 11.2548 12.3488 10.5645 11.6336 9.84925L8.09804 6.31372L11.6336 2.77819C12.3489 2.0629 13.0555 1.37166 12.3407 0.656867C11.6257 -0.0582045 10.9347 0.648682 10.2194 1.36397Z" fill="#D9D9D9"/>
</svg>
