<svg width="24" height="24" viewBox="0 0 24 24" fill="none" xmlns="http://www.w3.org/2000/svg">
<g clip-path="url(#clip0_2534_4054)">
<g filter="url(#filter0_d_2534_4054)">
<path d="M11 4H4C3.46957 4 2.96086 4.21071 2.58579 4.58579C2.21071 4.96086 2 5.46957 2 6V20C2 20.5304 2.21071 21.0391 2.58579 21.4142C2.96086 21.7893 3.46957 22 4 22H18C18.5304 22 19.0391 21.7893 19.4142 21.4142C19.7893 21.0391 20 20.5304 20 20V13" stroke="#C4C4C4" stroke-width="1.5" stroke-linecap="round" stroke-linejoin="round" shape-rendering="crispEdges"/>
</g>
<path d="M18.5 2.50023C18.8978 2.1024 19.4374 1.87891 20 1.87891C20.5626 1.87891 21.1022 2.1024 21.5 2.50023C21.8978 2.89805 22.1213 3.43762 22.1213 4.00023C22.1213 4.56284 21.8978 5.1024 21.5 5.50023L12 15.0002L8 16.0002L9 12.0002L18.5 2.50023Z" stroke="#C4C4C4" stroke-width="1.5" stroke-linecap="round" stroke-linejoin="round"/>
</g>
<defs>
<filter id="filter0_d_2534_4054" x="-2.75" y="3.25" width="27.5" height="27.5" filterUnits="userSpaceOnUse" color-interpolation-filters="sRGB">
<feFlood flood-opacity="0" result="BackgroundImageFix"/>
<feColorMatrix in="SourceAlpha" type="matrix" values="0 0 0 0 0 0 0 0 0 0 0 0 0 0 0 0 0 0 127 0" result="hardAlpha"/>
<feOffset dy="4"/>
<feGaussianBlur stdDeviation="2"/>
<feComposite in2="hardAlpha" operator="out"/>
<feColorMatrix type="matrix" values="0 0 0 0 0 0 0 0 0 0 0 0 0 0 0 0 0 0 0.25 0"/>
<feBlend mode="normal" in2="BackgroundImageFix" result="effect1_dropShadow_2534_4054"/>
<feBlend mode="normal" in="SourceGraphic" in2="effect1_dropShadow_2534_4054" result="shape"/>
</filter>
<clipPath id="clip0_2534_4054">
<rect width="24" height="24" fill="white"/>
</clipPath>
</defs>
</svg>
