<svg width="24" height="22" viewBox="0 0 24 22" fill="none" xmlns="http://www.w3.org/2000/svg">
<path d="M11.9992 20.9167L12.0016 20.9167C12.0895 20.9169 12.1763 20.8972 12.2555 20.8592C12.4814 20.748 15.2555 19.3666 17.9674 16.9444C20.7047 14.4995 23.25 11.1115 23.25 7.00009C23.25 5.82996 22.903 4.68612 22.253 3.71318C21.6029 2.74024 20.6789 1.9819 19.5979 1.53403C18.5169 1.08617 17.3273 0.968906 16.1797 1.19706C15.0321 1.42521 13.9778 1.98851 13.1503 2.81574C13.1503 2.81577 13.1503 2.81579 13.1502 2.81582L12.5303 3.43574L12 3.96607L11.4697 3.43574L10.8497 2.81582C10.8497 2.81579 10.8497 2.81577 10.8497 2.81574C10.0222 1.98851 8.96794 1.42521 7.82031 1.19706C6.67265 0.968906 5.4831 1.08617 4.40208 1.53403C3.32106 1.9819 2.39711 2.74024 1.74705 3.71318C1.09699 4.68611 0.750018 5.82996 0.75 7.00008L11.9992 20.9167ZM11.9992 20.9167C11.9112 20.9168 11.8243 20.897 11.745 20.8588M11.9992 20.9167L11.745 20.8588M11.745 20.8588C11.5326 20.7553 8.75183 19.3814 6.0333 16.9575C3.29647 14.5172 0.750004 11.1285 0.75 7.00009L11.745 20.8588Z" stroke="#C4C4C4" stroke-width="1.5"/>
</svg>
