<svg width="25" height="23" viewBox="0 0 25 23" fill="none" xmlns="http://www.w3.org/2000/svg">
<path d="M12.25 21.625C12.0608 21.6252 11.874 21.5811 11.7038 21.4961C11.2675 21.2769 1 16.0446 1 7.44525C1.00002 6.17058 1.36654 4.92453 2.05322 3.86465C2.7399 2.80478 3.71591 1.97867 4.85783 1.49079C5.99976 1.00292 7.25632 0.87517 8.46864 1.12371C9.68096 1.37225 10.7946 1.98591 11.6687 2.88711L12.25 3.48653L12.8313 2.88711C13.7054 1.98591 14.819 1.37225 16.0314 1.12371C17.2437 0.87517 18.5002 1.00292 19.6422 1.49079C20.7841 1.97867 21.7601 2.80478 22.4468 3.86465C23.1335 4.92453 23.5 6.17058 23.5 7.44525C23.5 16.0124 13.235 21.2744 12.7975 21.4961C12.6268 21.5813 12.4396 21.6254 12.25 21.625Z" stroke="#C4C4C4" stroke-width="1.5"/>
</svg>
