<svg width="40" height="40" viewBox="0 0 40 40" fill="none" xmlns="http://www.w3.org/2000/svg">
<path d="M39.4861 37.1097L30.4731 28.0812C32.9037 25.118 34.3556 21.3221 34.3556 17.1916C34.3556 7.69791 26.6639 2.92014e-05 17.1778 2.92014e-05C7.6917 2.92014e-05 -4.06901e-06 7.69791 -4.06901e-06 17.1916C-4.06901e-06 26.6853 7.6917 34.3832 17.1778 34.3832C21.3214 34.3832 25.1224 32.9138 28.0914 30.4649L37.1044 39.4851C38.1566 40.4484 39.1436 39.828 39.4861 39.4851C40.1713 38.8076 40.1713 37.7872 39.4861 37.1097ZM3.35236 17.1916C3.35236 9.55094 9.54325 3.35508 17.1778 3.35508C24.8124 3.35508 31.0114 9.55094 31.0114 17.1916C31.0114 24.8323 24.8205 31.0281 17.186 31.0281C9.55141 31.0281 3.35236 24.8323 3.35236 17.1916Z" fill="white"/>
</svg>
